<?xml version="1.0" encoding="UTF-8"?>
<svg xmlns="http://www.w3.org/2000/svg" xmlns:xlink="http://www.w3.org/1999/xlink" 
width="24px" height="24px" viewBox="0 0 30 30" version="1.1">
<g id="surface1">
<path style=" stroke:none;fill-rule:nonzero;fill-opacity:1;" d="M 5 10 C 2.25 10 0 7.75 0 5 C 0 2.25 2.25 0 5 0 C 7.75 0 10 2.25 10 5 C 10 7.75 7.75 10 5 10 Z M 5 2.5 C 3.625 2.5 2.5 3.625 2.5 5 C 2.5 6.375 3.625 7.5 5 7.5 C 6.375 7.5 7.5 6.375 7.5 5 C 7.5 3.625 6.375 2.5 5 2.5 Z M 5 2.5 "/>
<path style=" stroke:none;fill-rule:nonzero;fill-opacity:1;" d="M 20 20 C 17.25 20 15 17.75 15 15 C 15 12.25 17.25 10 20 10 C 22.75 10 25 12.25 25 15 C 25 17.75 22.75 20 20 20 Z M 20 12.5 C 18.625 12.5 17.5 13.625 17.5 15 C 17.5 16.375 18.625 17.5 20 17.5 C 21.375 17.5 22.5 16.375 22.5 15 C 22.5 13.625 21.375 12.5 20 12.5 Z M 20 12.5 "/>
<path style=" stroke:none;fill-rule:nonzero;fill-opacity:1;" d="M 28.75 6.25 L 8.75 6.25 C 8 6.25 7.5 5.75 7.5 5 C 7.5 4.25 8 3.75 8.75 3.75 L 28.75 3.75 C 29.5 3.75 30 4.25 30 5 C 30 5.75 29.5 6.25 28.75 6.25 Z M 28.75 6.25 "/>
<path style=" stroke:none;fill-rule:nonzero;fill-opacity:1;" d="M 28.75 16.25 L 23.75 16.25 C 23 16.25 22.5 15.75 22.5 15 C 22.5 14.25 23 13.75 23.75 13.75 L 28.75 13.75 C 29.5 13.75 30 14.25 30 15 C 30 15.75 29.5 16.25 28.75 16.25 Z M 28.75 16.25 "/>
<path style=" stroke:none;fill-rule:nonzero;fill-opacity:1;" d="M 16.25 16.25 L 1.25 16.25 C 0.5 16.25 0 15.75 0 15 C 0 14.25 0.5 13.75 1.25 13.75 L 16.25 13.75 C 17 13.75 17.5 14.25 17.5 15 C 17.5 15.75 17 16.25 16.25 16.25 Z M 16.25 16.25 "/>
<path style=" stroke:none;fill-rule:nonzero;fill-opacity:1;" d="M 12.5 30 C 9.75 30 7.5 27.75 7.5 25 C 7.5 22.25 9.75 20 12.5 20 C 15.25 20 17.5 22.25 17.5 25 C 17.5 27.75 15.25 30 12.5 30 Z M 12.5 22.5 C 11.125 22.5 10 23.625 10 25 C 10 26.375 11.125 27.5 12.5 27.5 C 13.875 27.5 15 26.375 15 25 C 15 23.625 13.875 22.5 12.5 22.5 Z M 12.5 22.5 "/>
<path style=" stroke:none;fill-rule:nonzero;fill-opacity:1;" d="M 28.75 26.25 L 16.25 26.25 C 15.5 26.25 15 25.75 15 25 C 15 24.25 15.5 23.75 16.25 23.75 L 28.75 23.75 C 29.5 23.75 30 24.25 30 25 C 30 25.75 29.5 26.25 28.75 26.25 Z M 28.75 26.25 "/>
<path style=" stroke:none;fill-rule:nonzero;fill-opacity:1;" d="M 8.75 26.25 L 1.25 26.25 C 0.5 26.25 0 25.75 0 25 C 0 24.25 0.5 23.75 1.25 23.75 L 8.75 23.75 C 9.5 23.75 10 24.25 10 25 C 10 25.75 9.5 26.25 8.75 26.25 Z M 8.75 26.25 "/>
</g>
</svg>
