<?xml version="1.0" encoding="UTF-8"?>
<svg xmlns="http://www.w3.org/2000/svg" xmlns:xlink="http://www.w3.org/1999/xlink" width="24px" height="24px" viewBox="0 0 40 40" version="1.1">
<g id="surface1">
<path style=" stroke:none;
fill-rule:evenodd;
fill-opacity:1;" 
d="M 28.398438 26.039062 C 30.453125 23.472656 31.679688 20.214844 31.679688 16.675781 C 31.679688 8.382812 24.960938 1.664062 16.675781 1.664062 C 8.382812 1.664062 1.664062 8.382812 1.664062 16.675781 C 1.664062 24.960938 8.382812 31.679688 16.675781 31.679688 C 20.214844 31.679688 23.472656 30.453125 26.039062 28.398438 L 35.488281 37.84375 C 36.136719 38.496094 37.195312 38.496094 37.84375 37.84375 C 38.496094 37.195312 38.496094 36.136719 37.84375 35.488281 Z M 16.675781 28.363281 C 10.21875 28.363281 4.984375 23.128906 4.984375 16.675781 C 4.984375 10.21875 10.21875 4.984375 16.675781 4.984375 C 23.128906 4.984375 28.363281 10.21875 28.363281 16.675781 C 28.363281 23.128906 23.128906 28.363281 16.675781 28.363281 Z M 16.675781 28.363281 "/>
</g>
</svg>
