<?xml version="1.0" encoding="UTF-8"?>
<svg xmlns="http://www.w3.org/2000/svg" xmlns:xlink="http://www.w3.org/1999/xlink" width="24px" height="24px" viewBox="0 0 40 40" version="1.1">
<g id="surface1">
<path style=" stroke:none;fill-rule:evenodd;fill-opacity:1;" d="M 30.066406 24.800781 L 40 34.875 L 35 40 L 24.8125 30.058594 C 22.242188 31.660156 19.277344 32.503906 16.25 32.5 C 7.273438 32.5 0 25.207031 0 16.25 C 0 7.273438 7.292969 0 16.25 0 C 25.226562 0 32.5 7.292969 32.5 16.25 C 32.503906 19.269531 31.660156 22.234375 30.066406 24.800781 Z M 4.992188 16.128906 C 4.992188 22.328125 10.027344 27.378906 16.242188 27.378906 C 22.441406 27.378906 27.492188 22.34375 27.492188 16.128906 C 27.492188 9.929688 22.453125 4.878906 16.242188 4.878906 C 10.042969 4.878906 4.992188 9.914062 4.992188 16.128906 Z M 4.992188 16.128906 "/>
</g>
</svg>
